<svg width="32" height="32" viewBox="0 0 32 32" fill="none" xmlns="http://www.w3.org/2000/svg">
<g clip-path="url(#clip0_268_2462)">
<path d="M26.6081 15.9946C26.6081 22.0524 21.7675 26.9893 15.804 26.9893C9.85123 26.9893 5 22.0524 5 15.9946C5 9.92603 9.85123 5 15.804 5C21.7675 5 26.6081 9.92603 26.6081 15.9946ZM19.0982 11.7153L14.5753 19.1098L12.4251 16.2857C12.1603 15.93 11.9273 15.8329 11.6201 15.8329C11.1435 15.8329 10.7728 16.2318 10.7728 16.7168C10.7728 16.9647 10.8681 17.2019 11.027 17.4175L13.6856 20.7374C13.961 21.1147 14.2576 21.2656 14.6177 21.2656C14.9779 21.2656 15.285 21.0931 15.5075 20.7374L20.4858 12.7609C20.6129 12.5346 20.7506 12.2866 20.7506 12.0495C20.7506 11.5429 20.3163 11.2195 19.8503 11.2195C19.5749 11.2195 19.2995 11.392 19.0982 11.7153Z" fill="#05A031" fill-opacity="0.85"/>
</g>
<defs>
<clipPath id="clip0_268_2462">
<rect width="22" height="22" fill="white" transform="translate(5 5)"/>
</clipPath>
</defs>
</svg>
