<svg width="32" height="32" viewBox="0 0 32 32" fill="none" xmlns="http://www.w3.org/2000/svg">
<path d="M22 3.84961C24.0158 3.84961 25.6504 5.48416 25.6504 7.5V20.5C25.6504 22.5158 24.0158 24.1504 22 24.1504H20V25.5C20 27.1051 18.7394 28.4158 17.1543 28.4961L17 28.5H9C7.34315 28.5 6 27.1569 6 25.5V12.5C6 10.8431 7.34315 9.5 9 9.5H10.3496V7.5C10.3496 5.48416 11.9842 3.84961 14 3.84961H22ZM9 10.7998C8.06112 10.7998 7.2998 11.5611 7.2998 12.5V25.5C7.2998 26.4389 8.06112 27.2002 9 27.2002H17C17.9389 27.2002 18.7002 26.4389 18.7002 25.5V12.5C18.7002 11.5611 17.9389 10.7998 17 10.7998H9ZM14 5.15039C12.7021 5.15039 11.6504 6.20213 11.6504 7.5V9.5H17L17.1543 9.50391C18.7394 9.58421 20 10.8949 20 12.5V22.8496H22C23.2979 22.8496 24.3496 21.7979 24.3496 20.5V7.5C24.3496 6.20213 23.2979 5.15039 22 5.15039H14Z" fill="#BABABA"/>
</svg>
