<svg width="32" height="32" viewBox="0 0 32 32" fill="none" xmlns="http://www.w3.org/2000/svg">
<path d="M22 4C24.0711 4 25.75 5.67893 25.75 7.75V20.75C25.75 22.8211 24.0711 24.5 22 24.5H20V25.75C20 27.4069 18.6569 28.75 17 28.75H9C7.34315 28.75 6 27.4069 6 25.75V12.75C6 11.0931 7.34315 9.75 9 9.75H10.25V7.75C10.25 5.67893 11.9289 4 14 4H22ZM14 5.5C12.7574 5.5 11.75 6.50736 11.75 7.75V9.75H17C18.6569 9.75 20 11.0931 20 12.75V23H22C23.2426 23 24.25 21.9926 24.25 20.75V7.75C24.25 6.50736 23.2426 5.5 22 5.5H14Z" fill="#BABABA"/>
</svg>
