<svg width="32" height="32" viewBox="0 0 32 32" fill="none" xmlns="http://www.w3.org/2000/svg">
<path d="M22 4.75C24.2091 4.75 26 6.54086 26 8.75V20.2148C25.9999 22.4239 24.2091 24.2148 22 24.2148H20V24.8105C20 26.4674 18.6569 27.8105 17 27.8105H9C7.34315 27.8105 6 26.4674 6 24.8105V13.3457C6.00011 11.6889 7.34321 10.3457 9 10.3457H10V8.75C10 6.54086 11.7909 4.75 14 4.75H22ZM14 6.75C12.8954 6.75 12 7.64543 12 8.75V10.3457H17C18.6568 10.3457 19.9999 11.6889 20 13.3457V22.2148H22C23.1045 22.2148 23.9999 21.3193 24 20.2148V8.75C24 7.64543 23.1046 6.75 22 6.75H14Z" fill="#BABABA"/>
</svg>
