<svg width="32" height="32" viewBox="0 0 32 32" fill="none" xmlns="http://www.w3.org/2000/svg">
<path d="M23 3.90039C25.0711 3.90039 26.75 5.57932 26.75 7.65039V20.6504C26.75 22.7215 25.0711 24.4004 23 24.4004H20.5V22.9004H23C24.2426 22.9004 25.25 21.893 25.25 20.6504V7.65039C25.25 6.40775 24.2426 5.40039 23 5.40039H15C13.7574 5.40039 12.75 6.40775 12.75 7.65039V9.65039H16C17.6569 9.65039 19 10.9935 19 12.6504V25.6504C19 27.3072 17.6569 28.6504 16 28.6504H8C6.34315 28.6504 5 27.3072 5 25.6504V12.6504C5 10.9935 6.34315 9.65039 8 9.65039H11.25V7.65039C11.25 5.57932 12.9289 3.90039 15 3.90039H23Z" fill="#BABABA"/>
</svg>
