<svg width="24" height="24" viewBox="0 0 24 24" fill="none" xmlns="http://www.w3.org/2000/svg">
<g clip-path="url(#clip0_242_43)">
<path fill-rule="evenodd" clip-rule="evenodd" d="M0.1584 23.9952H24V0H0V24H0.1584V23.9952ZM16.3152 17.0112C16.2144 16.9104 16.1184 16.8336 15.9984 16.7328C14.8848 15.72 13.7088 14.8032 12.456 13.9872C11.304 14.6832 10.1088 15.3216 8.8944 15.8976L1.4544 14.4048C2.9088 14.0256 4.3392 13.5696 5.7312 12.9936C6.6672 12.6144 7.56 12.1968 8.4576 11.7408C7.9008 11.4624 7.344 11.2224 6.768 11.0064C5.376 10.4496 3.9408 9.9936 2.4912 9.5952L9.9312 8.1024C10.7664 8.5008 11.5824 8.9184 12.3984 9.3552C13.3152 8.6976 14.1696 8.0016 15.0048 7.2672C15.1056 7.1664 15.2016 7.0896 15.3216 6.9888L21.5904 5.7936C19.9776 7.9632 18.0672 9.9312 15.9408 11.6064C18.4896 13.4352 20.736 15.6672 22.6272 18.192L16.3584 17.016H16.32L16.3152 17.0112Z" fill="#FE0103"/>
</g>
<defs>
<clipPath id="clip0_242_43">
<rect width="24" height="24" rx="6" fill="white"/>
</clipPath>
</defs>
</svg>
